<?xml version="1.0" standalone="no"?>
<!DOCTYPE svg PUBLIC "-//W3C//DTD SVG 20010904//EN"
 "http://www.w3.org/TR/2001/REC-SVG-20010904/DTD/svg10.dtd">
<svg version="1.0" xmlns="http://www.w3.org/2000/svg"
 width="88.000000pt" height="128.000000pt" viewBox="0 0 88.000000 128.000000"
 preserveAspectRatio="xMidYMid meet">

<g transform="translate(0.000000,128.000000) scale(0.100000,-0.100000)"
fill="#000000" stroke="none">
<path d="M287 1240 l-18 -30 41 -27 c131 -90 120 -77 120 -143 l0 -60 -155 0
-155 0 0 -45 c0 -25 5 -45 10 -45 6 0 10 -9 10 -19 0 -11 4 -21 9 -23 6 -2 19
-178 31 -393 12 -215 23 -400 26 -413 l4 -22 253 2 252 3 23 410 c13 226 28
411 33 413 5 2 9 12 9 23 0 10 5 19 10 19 6 0 10 20 10 45 l0 45 -150 0 -150
0 0 69 c0 38 -3 77 -6 86 -5 13 -174 135 -186 135 -2 0 -12 -13 -21 -30z m88
-36 c55 -37 63 -48 45 -59 -10 -6 -120 62 -120 75 0 7 11 20 17 20 2 0 28 -16
58 -36z m90 -75 c-4 -5 -13 -9 -22 -9 -13 0 -13 3 -3 15 13 15 35 11 25 -6z
m15 -28 c0 -12 -20 -25 -27 -18 -7 7 6 27 18 27 5 0 9 -4 9 -9z m0 -81 c0 -29
-4 -40 -15 -40 -11 0 -15 11 -15 40 0 29 4 40 15 40 11 0 15 -11 15 -40z m300
-85 l0 -25 -320 0 -320 0 0 25 0 25 320 0 320 0 0 -25z m-20 -55 c0 -6 -107
-10 -300 -10 -193 0 -300 4 -300 10 0 6 107 10 300 10 193 0 300 -4 300 -10z
m-321 -61 c18 -51 13 -110 -15 -190 -22 -60 -27 -98 -31 -199 -5 -122 2 -175
43 -317 6 -23 6 -23 -105 -23 l-111 0 0 38 c0 20 -9 186 -20 367 -11 182 -20
336 -20 343 0 9 31 12 124 12 l124 0 11 -31z m58 -24 c11 -42 10 -59 -2 -105
-58 -213 -58 -211 -52 -325 4 -72 14 -138 30 -193 21 -72 22 -83 8 -80 -9 2
-23 24 -32 53 -49 149 -51 343 -4 479 27 79 31 160 10 210 -6 14 -4 17 11 14
13 -2 23 -18 31 -53z m243 43 c0 -7 -9 -164 -20 -348 -11 -184 -20 -350 -20
-367 l0 -33 -89 0 c-87 0 -89 0 -99 27 -33 82 -46 164 -47 278 0 109 3 130 34
230 34 109 34 110 19 167 l-15 58 119 0 c88 0 118 -3 118 -12z m-50 -783 c0
-10 -432 -20 -458 -10 -7 3 -10 9 -7 15 9 14 465 9 465 -5z"/>
</g>
</svg>
